HIERARCHY
ROOT Hips
{
	OFFSET 0.000000 89.005402 0.000000
	CHANNELS 6 Xposition Yposition Zposition Xrotation Yrotation Zrotation
	JOINT Spine
	{
		OFFSET 0.116900 10.681000 0.373400
		CHANNELS 3 Xrotation Yrotation Zrotation
		JOINT Spine1
		{
			OFFSET 0.000000 13.840401 0.053500
			CHANNELS 3 Xrotation Yrotation Zrotation
			JOINT Spine2
			{
				OFFSET 0.000000 14.712700 -0.366200
				CHANNELS 3 Xrotation Yrotation Zrotation
				JOINT Neck
				{
					OFFSET 0.000000 35.415497 -3.314200
					CHANNELS 3 Xrotation Yrotation Zrotation
					JOINT Head
					{
						OFFSET 0.000000 16.899200 1.218300
						CHANNELS 3 Xrotation Yrotation Zrotation
						JOINT HeadTop_End
						{
							OFFSET 0.000000 22.206207 2.192500
							CHANNELS 3 Xrotation Yrotation Zrotation
							End Site
							{
								OFFSET 0.000000 22.314178 0.000000
							}
						}
					}
				}
				JOINT LeftShoulder
				{
					OFFSET 12.896400 26.716293 -4.548400
					CHANNELS 3 Xrotation Yrotation Zrotation
					JOINT LeftArm
					{
						OFFSET 19.027000 -4.857010 -1.718400
						CHANNELS 3 Xrotation Yrotation Zrotation
						JOINT LeftForeArm
						{
							OFFSET 24.179897 0.000000 0.000000
							CHANNELS 3 Xrotation Yrotation Zrotation
							JOINT LeftHand
							{
								OFFSET 27.156403 0.000000 0.000000
								CHANNELS 3 Xrotation Yrotation Zrotation
								JOINT LeftHandIndex1
								{
									OFFSET 16.441200 0.000000 0.000000
									CHANNELS 3 Xrotation Yrotation Zrotation
									JOINT LeftHandIndex2
									{
										OFFSET 4.821899 0.000000 0.000000
										CHANNELS 3 Xrotation Yrotation Zrotation
										JOINT LeftHandIndex3
										{
											OFFSET 6.386497 0.000000 0.000000
											CHANNELS 3 Xrotation Yrotation Zrotation
											JOINT LeftHandIndex4
											{
												OFFSET 5.188988 0.000000 0.000000
												CHANNELS 3 Xrotation Yrotation Zrotation
												End Site
												{
													OFFSET -0.178703 5.185913 0.000177
												}
											}
										}
									}
								}
								JOINT LeftHandThumb1
								{
									OFFSET 6.534897 -5.032593 5.900300
									CHANNELS 3 Xrotation Yrotation Zrotation
									JOINT LeftHandThumb2
									{
										OFFSET 3.818176 -2.204422 2.204423
										CHANNELS 3 Xrotation Yrotation Zrotation
										JOINT LeftHandThumb3
										{
											OFFSET 3.252098 -1.877594 1.877601
											CHANNELS 3 Xrotation Yrotation Zrotation
											JOINT LeftHandThumb4
											{
												OFFSET 5.251778 -3.032120 3.032117
												CHANNELS 3 Xrotation Yrotation Zrotation
												End Site
												{
													OFFSET 0.000023 6.780014 0.000000
												}
											}
										}
									}
								}
							}
						}
					}
				}
				JOINT RightShoulder
				{
					OFFSET -12.896300 26.716293 -4.548400
					CHANNELS 3 Xrotation Yrotation Zrotation
					JOINT RightArm
					{
						OFFSET -19.027000 -4.857010 -1.718400
						CHANNELS 3 Xrotation Yrotation Zrotation
						JOINT RightForeArm
						{
							OFFSET -24.179897 0.000000 0.000000
							CHANNELS 3 Xrotation Yrotation Zrotation
							JOINT RightHand
							{
								OFFSET -27.156403 0.000000 0.000000
								CHANNELS 3 Xrotation Yrotation Zrotation
								JOINT RightHandThumb1
								{
									OFFSET -6.591202 -4.852203 5.988100
									CHANNELS 3 Xrotation Yrotation Zrotation
									JOINT RightHandThumb2
									{
										OFFSET -3.818176 -2.204422 2.204423
										CHANNELS 3 Xrotation Yrotation Zrotation
										JOINT RightHandThumb3
										{
											OFFSET -3.252098 -1.877594 1.877601
											CHANNELS 3 Xrotation Yrotation Zrotation
											JOINT RightHandThumb4
											{
												OFFSET -5.251778 -3.032120 3.032117
												CHANNELS 3 Xrotation Yrotation Zrotation
												End Site
												{
													OFFSET -0.000023 6.780014 0.000000
												}
											}
										}
									}
								}
								JOINT RightHandIndex1
								{
									OFFSET -16.029404 0.000000 0.000000
									CHANNELS 3 Xrotation Yrotation Zrotation
									JOINT RightHandIndex2
									{
										OFFSET -5.213303 0.000000 0.000000
										CHANNELS 3 Xrotation Yrotation Zrotation
										JOINT RightHandIndex3
										{
											OFFSET -6.386528 0.000000 0.000000
											CHANNELS 3 Xrotation Yrotation Zrotation
											JOINT RightHandIndex4
											{
												OFFSET -5.189026 0.000000 0.000000
												CHANNELS 3 Xrotation Yrotation Zrotation
												End Site
												{
													OFFSET 0.236702 5.183624 0.001972
												}
											}
										}
									}
								}
							}
						}
					}
				}
			}
		}
	}
	JOINT LeftUpLeg
	{
		OFFSET 14.073000 -7.904099 -1.463000
		CHANNELS 3 Xrotation Yrotation Zrotation
		JOINT LeftLeg
		{
			OFFSET -0.109806 -34.073280 4.093200
			CHANNELS 3 Xrotation Yrotation Zrotation
			JOINT LeftFoot
			{
				OFFSET 0.109806 -29.899420 -6.319000
				CHANNELS 3 Xrotation Yrotation Zrotation
				JOINT LeftToeBase
				{
					OFFSET 1.551100 -14.988700 20.535801
					CHANNELS 3 Xrotation Yrotation Zrotation
					JOINT LeftToe_End
					{
						OFFSET 0.221200 0.570800 13.248301
						CHANNELS 3 Xrotation Yrotation Zrotation
						End Site
						{
							OFFSET 0.000000 13.262435 0.000000
						}
					}
				}
			}
		}
	}
	JOINT RightUpLeg
	{
		OFFSET -13.839300 -7.904099 -1.463000
		CHANNELS 3 Xrotation Yrotation Zrotation
		JOINT RightLeg
		{
			OFFSET 0.109694 -34.073219 4.093300
			CHANNELS 3 Xrotation Yrotation Zrotation
			JOINT RightFoot
			{
				OFFSET -0.109694 -29.899384 -6.319200
				CHANNELS 3 Xrotation Yrotation Zrotation
				JOINT RightToeBase
				{
					OFFSET -1.551100 -14.988700 20.535801
					CHANNELS 3 Xrotation Yrotation Zrotation
					JOINT RightToe_End
					{
						OFFSET -0.221200 0.570900 13.248299
						CHANNELS 3 Xrotation Yrotation Zrotation
						End Site
						{
							OFFSET 0.000000 13.262440 0.000000
						}
					}
				}
			}
		}
	}
}
MOTION
Frames: 9
Frame Time: 0.033333
0.425278 83.216583 1.500210 3.584743 7.605793 0.347090 6.709470 -1.727221 1.695755 14.763316 -0.469875 0.325387 14.763380 -0.467466 0.332251 3.150053 -0.746994 0.591270 21.377044 -3.681083 3.222588 -0.000001 -0.000000 0.000000 -0.208527 -10.774867 -22.015957 -27.297561 -20.840780 -57.153814 -0.000003 -21.437496 -0.000006 10.594264 -3.970713 8.211876 0.209604 3.651085 -14.856884 0.530653 2.438290 -24.552510 0.191598 1.487500 -14.678812 -0.000001 -0.000001 -0.000001 -0.266450 4.548703 10.792671 14.081222 6.218291 10.788943 -1.566429 -26.614855 15.516557 0.000001 0.000001 0.000002 0.379719 5.889978 19.441078 -27.701796 20.491206 57.509646 -0.000009 9.133562 -0.000003 1.687519 7.211713 2.389570 -6.439870 1.666962 -14.228012 17.750058 -20.831257 7.630716 -18.164492 14.323037 -9.874824 0.000000 0.000001 -0.000001 -1.310961 3.016397 14.433474 0.617387 -2.319110 29.810986 0.424778 -1.944994 24.637457 -0.000001 0.000000 0.000001 -28.820916 2.475719 2.480383 54.494453 6.097137 1.248096 -6.633280 0.631357 -6.875854 -22.728336 -0.024702 0.068881 0.000000 -0.000002 0.000000 -19.049401 -8.889992 -3.292514 35.565352 -9.196090 1.172011 -19.908979 -6.129360 2.104036 -0.000586 0.000002 0.000001 -0.000000 -0.000000 0.000000 
0.275486 83.617409 3.796673 3.944263 8.000756 0.893430 6.604775 -1.166913 1.168939 14.763321 -0.340059 0.186760 14.763379 -0.337753 0.191236 3.104387 -0.773136 0.524216 21.133444 -3.840451 3.099397 -0.000002 -0.000000 0.000000 -0.199450 -10.613874 -22.154159 -26.790312 -21.501845 -56.172200 -0.000004 -22.172725 -0.000019 11.638637 -4.686602 8.482541 0.207979 3.646179 -14.937140 0.528655 2.433910 -24.505419 0.191425 1.486789 -14.671588 -0.000003 0.000003 0.000003 -0.266446 4.548703 10.792672 14.095296 6.247756 10.777636 -1.544136 -26.656603 15.562287 0.000000 0.000001 0.000001 0.365668 6.108173 19.237426 -27.559998 21.429609 57.033517 -0.000002 9.746379 0.000001 0.957263 7.609184 2.749896 -6.439870 1.666962 -14.228013 17.725738 -20.778021 7.598200 -18.159970 14.582876 -10.005238 0.000001 0.000000 -0.000000 -1.307785 3.032762 14.372796 0.617385 -2.319114 29.810975 0.424401 -1.944181 24.626346 -0.000001 0.000000 -0.000000 -30.412418 2.673968 0.694726 46.806354 6.944737 1.152198 -5.644529 0.078130 -4.576438 -14.603937 -0.013794 0.069704 -0.000000 -0.000000 0.000000 -16.386391 -9.044047 -3.310417 33.780610 -9.169274 0.981524 -21.171607 -6.672353 2.348385 -0.000581 -0.000000 0.000000 0.000000 -0.000000 0.000000 
0.210005 84.040848 6.063623 4.346340 8.324253 1.280390 6.526179 -0.701243 0.743343 14.763317 -0.227230 0.077585 14.763380 -0.224793 0.079830 3.088148 -0.795642 0.456680 21.000274 -3.977386 2.933068 -0.000001 -0.000000 -0.000000 -0.175546 -10.380119 -22.183730 -26.185217 -21.719069 -55.451027 -0.000002 -22.797365 -0.000003 11.810813 -5.265666 8.945519 0.203726 3.636065 -15.269928 0.528412 2.433394 -24.499819 0.189189 1.478246 -14.585497 -0.000005 -0.000001 -0.000002 -0.266446 4.548703 10.792672 14.105628 6.275105 10.762724 -1.486062 -26.770663 15.686704 0.000000 0.000002 -0.000002 0.355152 6.283770 19.073457 -27.250846 22.398986 56.518036 -0.000007 10.575725 -0.000002 0.703883 7.975858 3.048087 -6.439867 1.666960 -14.228014 17.681965 -20.680944 7.540540 -18.153123 14.957261 -10.192692 -0.000002 0.000001 -0.000001 -1.300813 3.072406 14.232748 0.617375 -2.319108 29.810979 0.423922 -1.943125 24.612122 0.000002 -0.000003 -0.000000 -31.244284 2.734011 -0.422509 36.995952 8.147779 1.117870 -2.010701 -0.145658 -3.533974 -7.468091 -0.082724 0.723463 0.000000 -0.000002 0.000000 -13.510723 -9.238337 -3.216764 31.345357 -9.214221 0.833042 -21.998110 -7.093049 2.600877 -0.000579 0.000003 -0.000000 0.000000 0.000000 0.000000 
0.201795 84.426193 8.250755 4.857803 8.418401 1.656692 6.258169 -0.289486 0.273210 14.772543 -0.104062 0.013563 14.772588 -0.101612 0.013910 3.108277 -0.815423 0.400051 21.028776 -4.076426 2.757681 -0.000002 0.000000 -0.000000 -0.140867 -10.083193 -22.145584 -25.436900 -21.356799 -55.034382 0.000002 -23.913713 0.000013 11.138924 -5.413754 9.265709 0.201319 3.635472 -15.684242 0.528969 2.434619 -24.513066 0.185820 1.465241 -14.454232 -0.000001 -0.000001 -0.000000 -0.266447 4.548705 10.792672 14.118911 6.311430 10.742837 -1.404002 -26.941568 15.873336 0.000000 -0.000002 -0.000002 0.348716 6.399146 18.956611 -26.679037 23.263418 55.927979 -0.000006 12.244247 -0.000005 0.783541 8.029810 3.236760 -6.439869 1.666960 -14.228013 17.640420 -20.587688 7.486456 -18.143752 15.303348 -10.366218 0.000000 -0.000001 0.000003 -1.289919 3.099545 14.086193 0.617392 -2.319111 29.810962 0.423806 -1.942871 24.608808 0.000000 -0.000000 -0.000000 -31.620081 2.768300 -0.590234 26.482006 8.683623 0.982628 2.022097 0.330785 -5.963551 0.866221 -0.025002 1.259226 -0.000000 0.000001 -0.000000 -10.810368 -9.376254 -3.227815 28.690630 -9.289186 0.747182 -22.523189 -7.244546 2.882796 -0.000583 -0.000000 -0.000001 -0.000000 -0.000000 0.000000 
0.247479 84.699722 10.382488 5.472221 8.118078 1.841555 5.674920 0.140398 -0.139166 14.914119 0.043305 -0.000149 14.914109 0.045325 -0.001089 3.157145 -0.829394 0.373607 21.220925 -4.089336 2.616097 -0.000002 0.000000 0.000000 -0.094419 -9.718608 -22.036296 -24.488624 -20.306093 -54.924980 -0.000012 -25.796928 -0.000044 10.030757 -4.992887 9.339411 0.199636 3.634924 -15.937466 0.527586 2.431562 -24.480303 0.183255 1.455267 -14.353637 -0.000000 -0.000000 0.000001 -0.266449 4.548704 10.792672 14.139658 6.363503 10.716674 -1.306720 -27.133218 16.083521 0.000001 -0.000001 -0.000000 0.343699 6.473834 18.917155 -25.897371 23.905572 55.316541 -0.000003 14.812339 0.000007 0.948298 7.632195 3.367314 -6.439872 1.666962 -14.228011 17.628705 -20.561098 7.471440 -18.134962 15.448495 -10.439717 0.000000 0.000001 0.000001 -1.277871 3.094258 13.995581 0.617399 -2.319121 29.810945 0.424433 -1.944247 24.627488 0.000001 0.000000 0.000001 -31.832845 3.241326 -1.557366 15.870920 9.420542 1.038784 6.660550 0.193864 -2.803203 1.737793 -0.000009 -0.000001 0.000000 0.000001 0.000000 -8.694306 -9.326052 -3.116023 26.816631 -9.348089 0.576886 -22.664443 -7.227774 3.199933 -0.000586 0.000011 0.000002 -0.000000 -0.000001 0.000000 
0.466170 83.465927 12.982137 5.989403 7.385673 1.680749 4.933289 0.587643 -0.325250 15.128104 0.188853 0.020103 15.128072 0.190070 0.018670 3.214955 -0.828268 0.388713 21.495263 -3.959596 2.534087 0.000002 0.000000 -0.000000 -0.036476 -9.301638 -21.817231 -23.289734 -18.670587 -55.061792 -0.000001 -27.805154 -0.000009 9.087533 -4.211775 9.396720 0.194300 3.614732 -15.870860 0.522217 2.419747 -24.353361 0.182903 1.453890 -14.339834 0.000001 -0.000001 -0.000002 -0.266445 4.548701 10.792672 14.162298 6.416629 10.690108 -1.205985 -27.303539 16.272608 0.000003 -0.000002 0.000001 0.335073 6.559259 18.985216 -25.173084 24.311649 54.873279 -0.000006 17.327847 -0.000014 1.033322 6.992610 3.548349 -6.439870 1.666961 -14.228011 17.686302 -20.690444 7.546428 -18.131659 15.364210 -10.401143 0.000003 -0.000001 -0.000002 -1.267451 3.079577 13.937156 0.617380 -2.319110 29.810965 0.425940 -1.947515 24.671379 0.000002 -0.000000 -0.000002 -37.151045 3.679183 -2.594794 16.239449 9.724146 1.563988 4.449693 -0.413819 1.338341 1.814463 -0.000000 0.000000 -0.000001 0.000001 0.000000 -7.670222 -9.223014 -3.011080 28.838971 -9.336116 0.494046 -26.628063 -7.129322 4.075404 0.062596 0.000004 -0.000000 -0.000000 -0.000001 0.000000 
0.794595 82.730896 15.738647 6.245914 6.216503 1.113526 4.378414 0.917639 -0.280866 15.314664 0.280567 0.038183 15.314773 0.281153 0.036914 3.269801 -0.804918 0.434501 21.750211 -3.689862 2.511321 -0.000002 -0.000000 0.000000 0.019943 -8.922519 -21.502533 -21.793742 -16.906902 -55.319755 -0.000005 -28.806244 -0.000011 8.543962 -3.446887 9.612634 0.180498 3.553102 -15.356442 0.512834 2.398934 -24.130326 0.185053 1.462238 -14.423951 -0.000000 0.000001 -0.000000 -0.266446 4.548704 10.792672 14.170074 6.432729 10.681245 -1.117468 -27.443289 16.430899 -0.000002 0.000001 0.000001 0.320086 6.687515 19.151123 -24.762858 24.516814 54.803375 0.000001 18.618384 0.000016 1.105615 6.477615 3.803544 -6.439869 1.666962 -14.228014 17.855726 -21.065062 7.765238 -18.139292 15.186676 -10.322339 0.000002 -0.000001 -0.000001 -1.251446 3.111897 13.800612 0.617382 -2.319109 29.810979 0.427942 -1.951887 24.730629 -0.000001 -0.000002 -0.000000 -41.607566 3.757719 -2.273726 18.533348 7.990308 2.137786 -0.043372 -0.824002 0.332221 1.421427 0.000002 0.000001 0.000000 0.000001 -0.000000 -5.402951 -9.334921 -2.369174 28.854500 -9.522872 0.563873 -28.927559 -6.137442 3.748232 0.411425 -0.000005 0.000001 0.000000 -0.000000 0.000000 
1.162185 82.394615 18.455141 6.312988 4.831564 0.486300 4.223923 1.062145 -0.288104 15.410691 0.297157 0.005718 15.410934 0.297867 0.004675 3.329312 -0.768988 0.488843 21.972251 -3.375126 2.539369 -0.000001 0.000000 0.000000 0.054150 -8.712434 -21.227171 -20.041558 -15.651399 -55.493460 -0.000001 -28.341149 -0.000003 8.209501 -2.900504 9.740780 0.158163 3.435603 -14.061600 0.498812 2.367421 -23.793090 0.189608 1.479856 -14.601635 -0.000000 0.000001 0.000001 -0.266447 4.548704 10.792670 14.143812 6.369937 10.712814 -1.059507 -27.572395 16.574403 -0.000000 0.000001 0.000002 0.301536 6.830409 19.371214 -24.648838 24.477431 55.159160 -0.000003 18.384801 0.000014 1.300477 6.285637 4.018350 -6.439868 1.666960 -14.228012 18.126212 -21.645399 8.109984 -18.159549 14.920005 -10.203651 0.000001 0.000001 -0.000002 -1.224024 3.192553 13.523938 0.617389 -2.319108 29.810979 0.429657 -1.955576 24.780623 -0.000001 0.000001 -0.000000 -43.686006 4.322836 -1.543814 20.990614 3.829658 1.328273 -4.758713 -1.193222 0.589734 0.789626 0.000008 0.000003 -0.000001 0.000000 0.000000 -2.243509 -9.507724 -1.557502 26.908816 -9.812484 0.581593 -30.009505 -4.667918 2.822405 0.290344 0.000012 0.000001 -0.000000 -0.000000 -0.000000 
1.653264 81.738724 21.197346 6.205696 3.622477 0.515605 4.413904 1.175787 -0.674838 15.428356 0.283937 -0.119244 15.428320 0.285043 -0.120875 3.409180 -0.743481 0.537157 22.257985 -3.132826 2.596419 0.000002 -0.000000 0.000000 0.054055 -8.720068 -21.205639 -18.292246 -15.236250 -55.347331 -0.000004 -26.959177 -0.000005 8.097307 -2.494706 9.293736 0.140032 3.298667 -11.641810 0.479673 2.323558 -23.325364 0.196297 1.505278 -14.858313 0.000000 -0.000001 -0.000000 -0.266443 4.548702 10.792668 14.061030 6.170731 10.815307 -1.100128 -27.565885 16.552479 0.000001 0.000002 0.000000 0.288029 6.902427 19.596870 -24.639691 24.078141 55.878228 -0.000000 16.989923 -0.000007 1.613817 6.459062 4.042066 -6.439868 1.666962 -14.228013 18.365825 -22.142679 8.410766 -18.176677 14.236813 -9.869366 0.000003 0.000000 -0.000001 -1.204313 3.207796 13.227326 0.617376 -2.319107 29.810972 0.429912 -1.956127 24.787911 -0.000001 0.000002 -0.000000 -43.717268 4.202468 -2.099431 22.071236 1.779009 1.374655 -0.136765 -1.106294 1.913541 1.387195 0.000001 0.000001 -0.000000 -0.000001 -0.000000 0.119454 -9.866214 -1.687099 27.125091 -9.870468 0.475383 -32.388101 -3.472905 1.736108 0.040552 -0.000035 0.048201 0.000000 -0.000000 0.000000 
